# xmcd
#
# Track frame offsets: 
#        150
#        27658
#        49553
#        79056
#        110087
#        144194
#        171205
#        200226
#        234878
#        265198
#        282158
#
# Disc length: 4242 seconds
#
# Revision: 0
# Processed by: cddbd v1.5.2PL0 Copyright (c) Steve Scherf et al.
# Submitted via: ExactAudioCopy v1.3
#
DISCID=9810900b
DTITLE=Bob Stroger and Mr Jones Band - Live In Buenos Aires
DYEAR=2010
DGENRE=Chicago Blues
TTITLE0=Don't You Lie To Me
TTITLE1=Just A Sad Boy
TTITLE2=Whats Goes On In The Park
TTITLE3=Key To The Highway
TTITLE4=Blind Man Blues
TTITLE5=Look Over Yonder Wall
TTITLE6=Let the Good Times Roll
TTITLE7=You Got To Move
TTITLE8=Sweet Home Chicago
TTITLE9=Bob Is Back In Town
TTITLE10=Jazz Man Blues
EXTD=
EXTT0=
EXTT1=
EXTT2=
EXTT3=
EXTT4=
EXTT5=
EXTT6=
EXTT7=
EXTT8=
EXTT9=
EXTT10=
PLAYORDER=
